<svg width="60" height="65" xmlns="http://www.w3.org/2000/svg">

 <g>
  <rect fill="none" id="canvas_background" height="67" width="62" y="-1" x="-1"/>
 </g>
 <g>
  <path id="svg_1" fill="#000" d="m15,58c0.552,0 1,-0.448002 1,-1l0,-1l2.764,0l10.691,5.346001c0.462999,0.230999 0.962999,0.346001 1.462,0.346001c0.569,0 1.137001,-0.149002 1.646,-0.446003l21.813999,-12.724998c1,-0.584 1.622002,-1.666 1.622002,-2.822998c0,-0.967003 -0.424,-1.879002 -1.165001,-2.501003c-0.741001,-0.622997 -1.709,-0.882999 -2.664001,-0.718998l-19.829998,3.447998l-5.632999,-5.632999c-0.187,-0.188 -0.442001,-0.292999 -0.707001,-0.292999l-11,0l-4,0l-9,0l0,2l8,0l0,14l-8,0l0,2l9,0l4,0zm1,-16l9.586,0l7.878,7.877998c0.346001,0.346001 0.535999,0.805 0.535999,1.293003c0,1.008999 -0.82,1.828999 -1.828999,1.828999c-0.488001,0 -0.947001,-0.189999 -1.293001,-0.535999l-5.171,-5.171001l-1.414001,1.414001l5.171001,5.170998c0.723999,0.724003 1.684999,1.122002 2.707001,1.122002c2.112,0 3.828999,-1.716999 3.828999,-3.828999c0,-1.022003 -0.397999,-1.984001 -1.122002,-2.707001l-0.808998,-0.809002l18.445,-3.208c0.370998,-0.063999 0.747002,0.037003 1.034,0.279003c0.286999,0.241997 0.452,0.595997 0.452,0.970997c0,0.449001 -0.241001,0.869003 -0.629002,1.096001l-21.814999,12.725002c-0.372,0.216 -0.823,0.229 -1.206999,0.038998l-10.902,-5.451c-0.138,-0.07 -0.292,-0.105999 -0.447001,-0.105999l-3,0l0,-12zm-4,0l2,0l0,14l-2,0l0,-14z"/>
  <path id="svg_2" fill="#000" d="m20,21l0,10c0,0.552 0.448,1 1,1l8,0l6,0l8,0c0.551998,0 1,-0.448 1,-1l0,-10c0,-0.264999 -0.105,-0.52 -0.292999,-0.707001l-2.707001,-2.706999l0,-5.586c0,-0.552 -0.448002,-1 -1,-1l-4,0c-0.551998,0 -1,0.448 -1,1l0,0.586l-2.292999,-2.293c-0.376999,-0.378 -0.985001,-0.391 -1.380001,-0.033l-11,10c-0.208,0.190001 -0.327,0.458 -0.327,0.74zm14,9l-4,0l0,-6l4,0l0,6zm-12,-8.558001l9.966999,-9.061l3.326,3.326c0.285999,0.286 0.715,0.37 1.09,0.217c0.373001,-0.155 0.617001,-0.52 0.617001,-0.924l0,-2l2,0l0,5c0,0.264999 0.105,0.52 0.292999,0.707001l2.707001,2.706999l0,8.586l-6,0l0,-7c0,-0.552 -0.448002,-1 -1,-1l-6,0c-0.552,0 -1,0.448 -1,1l0,7l-6,0l0,-8.558001z"/>
  <path id="svg_3" fill="#000" d="m34,8c0.551998,0 1,-0.448 1,-1l0,-4c0,-0.552 -0.448002,-1 -1,-1l-4,0c-0.552,0 -1,0.448 -1,1l0,4c0,0.552 0.448,1 1,1l4,0zm-3,-4l2,0l0,2l-2,0l0,-2z"/>
  <path id="svg_4" fill="#000" d="m51,21l0,4c0,0.552 0.448002,1 1,1l4,0c0.551998,0 1,-0.448 1,-1l0,-4c0,-0.552 -0.448002,-1 -1,-1l-4,0c-0.551998,0 -1,0.448 -1,1zm2,1l2,0l0,2l-2,0l0,-2z"/>
  <path id="svg_5" fill="#000" d="m7,21l0,4c0,0.552 0.448,1 1,1l4,0c0.552,0 1,-0.448 1,-1l0,-4c0,-0.552 -0.448,-1 -1,-1l-4,0c-0.552,0 -1,0.448 -1,1zm2,1l2,0l0,2l-2,0l0,-2z"/>
  <path id="svg_6" fill="#000" d="m30,34c-0.552,0 -1,0.448002 -1,1l0,4c0,0.551998 0.448,1 1,1l4,0c0.551998,0 1,-0.448002 1,-1l0,-4c0,-0.551998 -0.448002,-1 -1,-1l-4,0zm3,4l-2,0l0,-2l2,0l0,2z"/>
  <rect id="svg_7" fill="#000" height="2" width="2" y="36" x="37"/>
  <rect id="svg_8" fill="#000" height="2" width="2" y="36" x="41"/>
  <rect id="svg_9" fill="#000" height="2" width="2" y="36" x="45"/>
  <rect id="svg_10" fill="#000" height="2" width="2" y="36" x="49"/>
  <rect id="svg_11" fill="#000" height="2" width="2" y="36" x="13"/>
  <rect id="svg_12" fill="#000" height="2" width="2" y="36" x="17"/>
  <rect id="svg_13" fill="#000" height="2" width="2" y="36" x="21"/>
  <rect id="svg_14" fill="#000" height="2" width="2" y="36" x="25"/>
  <rect id="svg_15" fill="#000" height="2" width="2" y="36" x="53"/>
  <rect id="svg_16" fill="#000" height="2" width="2" y="32" x="53"/>
  <rect id="svg_17" fill="#000" height="2" width="2" y="28" x="53"/>
  <rect id="svg_18" fill="#000" height="2" width="2" y="36" x="9"/>
  <rect id="svg_19" fill="#000" height="2" width="2" y="32" x="9"/>
  <rect id="svg_20" fill="#000" height="2" width="2" y="28" x="9"/>
  <rect id="svg_21" fill="#000" height="2" width="2" y="16" x="53"/>
  <rect id="svg_22" fill="#000" height="2" width="2" y="12" x="53"/>
  <rect id="svg_23" fill="#000" height="2" width="2" y="8" x="53"/>
  <rect id="svg_24" fill="#000" height="2" width="2" y="16" x="9"/>
  <rect id="svg_25" fill="#000" height="2" width="2" y="12" x="9"/>
  <rect id="svg_26" fill="#000" height="2" width="2" y="8" x="9"/>
  <rect id="svg_27" fill="#000" height="2" width="2" y="4" x="53"/>
  <rect id="svg_28" fill="#000" height="2" width="2" y="4" x="49"/>
  <rect id="svg_29" fill="#000" height="2" width="2" y="4" x="45"/>
  <rect id="svg_30" fill="#000" height="2" width="2" y="4" x="41"/>
  <rect id="svg_31" fill="#000" height="2" width="2" y="4" x="37"/>
  <rect id="svg_32" fill="#000" height="2" width="2" y="4" x="25"/>
  <rect id="svg_33" fill="#000" height="2" width="2" y="4" x="21"/>
  <rect id="svg_34" fill="#000" height="2" width="2" y="4" x="17"/>
  <rect id="svg_35" fill="#000" height="2" width="2" y="4" x="13"/>
  <rect id="svg_36" fill="#000" height="2" width="2" y="4" x="9"/>
 </g>
</svg>
